<?xml version="1.0" standalone="no"?>
<!DOCTYPE svg PUBLIC "-//W3C//DTD SVG 20010904//EN"
 "http://www.w3.org/TR/2001/REC-SVG-20010904/DTD/svg10.dtd">
<svg version="1.0" xmlns="http://www.w3.org/2000/svg"
 width="512.000000pt" height="512.000000pt" viewBox="0 0 512.000000 512.000000"
 preserveAspectRatio="xMidYMid meet">

<g transform="translate(0.000000,512.000000) scale(0.100000,-0.100000)"
fill="#000000" stroke="none">
<path d="M0 2560 l0 -2560 2560 0 2560 0 0 2560 0 2560 -2560 0 -2560 0 0
-2560z m4749 2491 c-19 -22 -76 -86 -128 -143 -52 -57 -135 -148 -185 -203
-166 -182 -587 -599 -961 -950 -268 -252 -440 -423 -433 -430 4 -4 13 -1 21 6
8 8 42 34 76 59 154 112 278 230 621 586 52 55 111 110 130 124 l35 25 -25
-35 c-13 -19 -108 -125 -210 -236 -102 -110 -237 -258 -300 -329 -63 -71 -141
-155 -172 -187 -32 -32 -58 -62 -58 -66 0 -4 15 -17 33 -28 139 -91 141 -92
222 -103 85 -12 133 -37 181 -94 31 -37 74 -121 74 -144 0 -24 -78 -145 -89
-139 -5 3 -69 -23 -142 -58 -74 -35 -192 -90 -264 -122 -71 -32 -187 -90 -256
-130 -110 -62 -402 -207 -473 -234 -20 -7 -24 -6 -20 4 5 13 32 26 59 30 6 1
21 9 35 18 88 56 172 101 269 143 61 27 109 50 107 52 -4 4 -427 -166 -442
-178 -6 -5 -14 -6 -17 -2 -4 3 -7 1 -7 -6 0 -8 -6 -11 -16 -7 -8 3 -13 2 -10
-3 6 -9 -133 -75 -141 -68 -2 3 26 17 62 32 115 49 63 37 -71 -16 -71 -28
-192 -74 -269 -101 -317 -113 -299 -105 -307 -133 -3 -15 -12 -33 -18 -40 -7
-8 -9 -19 -5 -25 3 -5 1 -10 -4 -10 -13 0 -13 -14 -1 195 14 242 49 460 120
750 56 228 146 455 180 455 5 0 16 13 25 29 19 37 134 119 201 142 97 34 124
34 193 0 52 -27 88 -35 209 -51 81 -11 160 -20 176 -20 31 0 25 -5 447 379
124 113 299 271 388 351 214 191 196 175 287 256 43 40 99 88 124 109 24 20
49 42 55 49 5 7 32 30 60 52 27 21 57 46 66 55 9 9 36 30 62 47 25 18 47 35
49 40 1 4 19 19 38 32 19 13 103 77 185 140 206 160 307 216 234 131z m-1289
-2382 c-19 -13 -188 -93 -265 -126 -33 -14 -113 -52 -177 -84 -121 -60 -160
-76 -98 -37 132 81 628 308 540 247z m-580 -274 c0 -6 -76 -45 -87 -45 -4 1
12 12 37 25 50 27 50 27 50 20z m-220 -110 c0 -2 -10 -9 -22 -15 -22 -11 -22
-10 -4 4 21 17 26 19 26 11z m-450 -139 c0 -15 -397 -122 -408 -111 -2 2 13 8
35 14 21 5 108 30 193 54 155 45 180 51 180 43z"/>
<path d="M2960 3221 c0 -6 5 -11 11 -11 7 0 97 -41 201 -91 105 -50 192 -88
194 -86 3 3 -344 175 -393 194 -7 3 -13 0 -13 -6z"/>
<path d="M3380 3026 c0 -2 7 -7 16 -10 8 -3 12 -2 9 4 -6 10 -25 14 -25 6z"/>
<path d="M2486 2749 c-114 -116 -205 -213 -203 -215 2 -2 51 44 108 103 57 59
151 156 208 215 58 60 102 108 99 108 -3 0 -99 -95 -212 -211z"/>
<path d="M1837 2827 c-33 -152 -70 -367 -64 -373 3 -3 12 37 21 88 9 51 31
162 47 246 17 85 29 156 27 158 -3 2 -16 -51 -31 -119z"/>
<path d="M3476 2864 c-3 -9 -13 -14 -21 -11 -16 7 -123 -28 -320 -106 -207
-81 -575 -220 -695 -262 -58 -20 -125 -48 -149 -61 -51 -28 -52 -28 -45 -9 4
9 0 15 -8 15 -9 0 -22 -26 -35 -70 -11 -38 -17 -70 -12 -70 8 0 109 38 374
138 408 156 955 396 955 420 0 10 -21 32 -31 32 -4 0 -10 -7 -13 -16z m-931
-423 c-47 -21 -92 -36 -85 -28 7 8 103 46 115 46 6 0 -8 -8 -30 -18z m-105
-41 c-8 -5 -19 -10 -25 -10 -5 0 -3 5 5 10 8 5 20 10 25 10 6 0 3 -5 -5 -10z
m-61 -24 c-2 -1 -19 -8 -36 -14 -37 -12 -45 -6 -10 8 22 9 54 13 46 6z"/>
<path d="M2505 2640 c-3 -5 -1 -10 4 -10 6 0 11 5 11 10 0 6 -2 10 -4 10 -3 0
-8 -4 -11 -10z"/>
<path d="M2420 2549 c0 -5 5 -7 10 -4 6 3 10 8 10 11 0 2 -4 4 -10 4 -5 0 -10
-5 -10 -11z"/>
<path d="M2263 2505 c-3 -9 -3 -18 -1 -21 3 -3 8 4 11 16 6 23 -1 27 -10 5z"/>
<path d="M1907 2270 c-44 -41 -39 -55 7 -19 25 20 53 59 41 59 -3 0 -25 -18
-48 -40z"/>
<path d="M1761 2255 c-1 -11 -4 -31 -6 -45 l-6 -25 11 25 c6 13 9 33 7 45 -4
19 -4 19 -6 0z"/>
<path d="M1825 2181 c-33 -16 -57 -30 -53 -30 9 -1 140 48 147 54 15 16 -43 1
-94 -24z"/>
</g>
</svg>
